<svg width="64" height="64" viewBox="0 0 64 64" fill="none" xmlns="http://www.w3.org/2000/svg">
<path d="M36.1846 7.47852L36.7285 8.22949L37.5176 7.74414L43.5938 4.00977L45.25 10.9463L45.4648 11.8477L46.3799 11.7021L53.4219 10.5771L52.2979 17.6201L52.1523 18.5352L53.0537 18.75L59.9893 20.4053L56.2559 26.4824L55.7705 27.2715L56.5215 27.8154L62.2959 32L56.5215 36.1846L55.7705 36.7285L56.2559 37.5176L59.9893 43.5938L53.0537 45.25L52.1523 45.4648L52.2979 46.3799L53.4219 53.4219L46.3799 52.2979L45.4648 52.1523L45.25 53.0537L43.5938 59.9893L37.5176 56.2559L36.7285 55.7705L36.1846 56.5215L32 62.2959L27.8154 56.5215L27.2715 55.7705L26.4824 56.2559L20.4053 59.9893L18.75 53.0537L18.5352 52.1523L17.6201 52.2979L10.5771 53.4219L11.7021 46.3799L11.8477 45.4648L10.9463 45.25L4.00977 43.5938L7.74414 37.5176L8.22949 36.7285L7.47852 36.1846L1.70312 32L7.47852 27.8154L8.22949 27.2715L7.74414 26.4824L4.00977 20.4053L10.9463 18.75L11.8477 18.5352L11.7021 17.6201L10.5771 10.5771L17.6201 11.7021L18.5352 11.8477L18.75 10.9463L20.4053 4.00977L26.4824 7.74414L27.2715 8.22949L27.8154 7.47852L32 1.70312L36.1846 7.47852Z" stroke="#E74C2E" stroke-width="2"/>
</svg>
