<svg width="64" height="64" viewBox="0 0 64 64" fill="none" xmlns="http://www.w3.org/2000/svg">
<path d="M21 1H43C45.1619 1 47.0451 2.82965 47.8193 5.22754C49.4933 10.4123 53.5877 14.5067 58.7725 16.1807C61.1703 16.9549 63 18.8381 63 21V43C63 45.1619 61.1703 47.0451 58.7725 47.8193C53.5877 49.4933 49.4933 53.5877 47.8193 58.7725C47.0451 61.1703 45.1619 63 43 63H21C18.8381 63 16.9549 61.1703 16.1807 58.7725C14.5067 53.5877 10.4123 49.4933 5.22754 47.8193C2.82965 47.0451 1 45.1619 1 43V21C1 18.8381 2.82965 16.9549 5.22754 16.1807C10.4123 14.5067 14.5067 10.4123 16.1807 5.22754C16.9549 2.82965 18.8381 1 21 1Z" stroke="#E74C2E" stroke-width="2"/>
</svg>
