<svg width="64" height="64" viewBox="0 0 64 64" fill="none" xmlns="http://www.w3.org/2000/svg">
<path d="M32 1C40.7419 1 48.61 2.41941 54.2559 4.67773C57.0814 5.80794 59.301 7.12849 60.7979 8.54395C62.2925 9.95744 62.9999 11.3961 63 12.7998C63 14.317 62.1718 15.8784 60.4189 17.3984C58.6678 18.917 56.084 20.3088 52.8311 21.457L50.1592 22.4004L52.8311 23.3428C56.084 24.491 58.6678 25.8828 60.4189 27.4014C62.1719 28.9215 63 30.4827 63 32C63 33.5173 62.1719 35.0785 60.4189 36.5986C58.6678 38.1172 56.084 39.509 52.8311 40.6572L50.1592 41.5996L52.8311 42.543C56.084 43.6912 58.6678 45.083 60.4189 46.6016C62.1718 48.1216 63 49.683 63 51.2002C62.9999 52.6039 62.2925 54.0426 60.7979 55.4561C59.301 56.8715 57.0814 58.1921 54.2559 59.3223C48.61 61.5806 40.7419 63 32 63C23.2581 63 15.39 61.5806 9.74414 59.3223C6.91863 58.1921 4.69898 56.8715 3.20215 55.4561C1.7075 54.0426 1.00007 52.6039 1 51.2002C1 49.683 1.82825 48.1217 3.58105 46.6016C5.33214 45.083 7.9161 43.6912 11.1689 42.543L13.8398 41.5996L11.1689 40.6572C7.9161 39.509 5.33214 38.1172 3.58105 36.5986C1.82818 35.0785 1 33.5173 1 32L1.00977 31.7148C1.10723 30.2876 1.93781 28.8264 3.58105 27.4014C5.33214 25.8828 7.9161 24.491 11.1689 23.3428L13.8398 22.4004L11.1689 21.457C7.9161 20.3088 5.33214 18.917 3.58105 17.3984C1.82825 15.8783 1 14.317 1 12.7998C1.00007 11.3961 1.7075 9.95744 3.20215 8.54395C4.69898 7.12849 6.91863 5.80794 9.74414 4.67773C15.39 2.4194 23.2581 1 32 1Z" stroke="#E74C2E" stroke-width="2"/>
</svg>
