<svg width="64" height="64" viewBox="0 0 64 64" fill="none" xmlns="http://www.w3.org/2000/svg">
<mask id="path-1-inside-1_1793_722" fill="white">
<path d="M14.7695 0C41.9588 8.45264e-05 63.9998 22.0413 64 49.2305H46.9756C48.4401 53.893 49.2305 58.8541 49.2305 64H0V14.7695C5.14586 14.7695 10.107 15.5599 14.7695 17.0244V0Z"/>
</mask>
<path d="M14.7695 0L14.7695 -2L12.7695 -2.00001V0H14.7695ZM64 49.2305V51.2305H66L66 49.2305L64 49.2305ZM46.9756 49.2305V47.2305H44.251L45.0675 49.8298L46.9756 49.2305ZM49.2305 64V66H51.2305L51.2305 64L49.2305 64ZM0 64H-2V66H0V64ZM0 14.7695V12.7695H-2V14.7695H0ZM14.7695 17.0244L14.1702 18.9325L16.7695 19.7489V17.0244H14.7695ZM14.7695 0L14.7695 2C40.8542 2.00008 61.9998 23.1458 62 49.2305L64 49.2305L66 49.2305C65.9998 20.9367 43.0633 -1.99991 14.7695 -2L14.7695 0ZM64 49.2305V47.2305H46.9756V49.2305V51.2305H64V49.2305ZM46.9756 49.2305L45.0675 49.8298C46.4719 54.3009 47.2305 59.06 47.2305 64L49.2305 64L51.2305 64C51.2305 58.6483 50.4083 53.4851 48.8837 48.6311L46.9756 49.2305ZM49.2305 64V62H0V64V66H49.2305V64ZM0 64H2V14.7695H0H-2V64H0ZM0 14.7695V16.7695C4.93998 16.7695 9.69912 17.5282 14.1702 18.9325L14.7695 17.0244L15.3689 15.1163C10.5149 13.5917 5.35174 12.7695 0 12.7695V14.7695ZM14.7695 17.0244H16.7695V0H14.7695H12.7695V17.0244H14.7695Z" fill="#E74C2E" mask="url(#path-1-inside-1_1793_722)"/>
</svg>
