<svg width="20" height="19" viewBox="0 0 20 19" fill="none" xmlns="http://www.w3.org/2000/svg">
<path d="M10 0C4.47712 0 0 3.5301 0 7.88462C0 10.6999 1.87173 13.1702 4.68731 14.5651C4.53414 15.0934 3.70298 17.9636 3.6699 18.189C3.6699 18.189 3.65 18.3585 3.75971 18.4231C3.86942 18.4877 3.99846 18.4375 3.99846 18.4375C4.31308 18.3936 7.64683 16.0518 8.22385 15.6452C8.80029 15.7268 9.39385 15.7692 10 15.7692C15.5229 15.7692 20 12.2392 20 7.88462C20 3.5301 15.5229 0 10 0Z" fill="#0B4066"/>
<path d="M4.47296 10.638C4.15478 10.638 3.89603 10.3908 3.89603 10.087V6.65959H2.99584C2.68363 6.65959 2.42969 6.40613 2.42969 6.09469C2.42969 5.78325 2.68373 5.52979 2.99584 5.52979H5.95007C6.26228 5.52979 6.51623 5.78325 6.51623 6.09469C6.51623 6.40613 6.26219 6.65959 5.95007 6.65959H5.04988V10.087C5.04988 10.3908 4.79113 10.638 4.47296 10.638ZM9.5318 10.6305C9.29123 10.6305 9.10719 10.5328 9.05171 10.3756L8.76603 9.62776L7.0068 9.62767L6.72094 10.376C6.66565 10.5329 6.48171 10.6305 6.24113 10.6305C6.11459 10.6306 5.9895 10.6034 5.8744 10.5508C5.71536 10.4775 5.56248 10.2757 5.73767 9.73161L7.11767 6.0993C7.21488 5.82305 7.51017 5.53844 7.88594 5.52988C8.26277 5.53834 8.55805 5.82305 8.65546 6.09988L10.0349 9.73055C10.2105 10.2759 10.0576 10.4778 9.89853 10.5509C9.78341 10.6034 9.65833 10.6306 9.5318 10.6305ZM8.46267 8.60584L7.88642 6.96882L7.31017 8.60584H8.46267ZM10.9633 10.5538C10.6584 10.5538 10.4105 10.3165 10.4105 10.025V6.10671C10.4105 5.78854 10.6747 5.52979 10.9994 5.52979C11.3241 5.52979 11.5883 5.78854 11.5883 6.10671V9.49613H12.8143C13.1192 9.49613 13.3672 9.73344 13.3672 10.025C13.3672 10.3165 13.1192 10.5538 12.8143 10.5538H10.9633ZM14.1685 10.6305C13.8504 10.6305 13.5916 10.3717 13.5916 10.0535V6.10671C13.5916 5.78854 13.8504 5.52979 14.1685 5.52979C14.4867 5.52979 14.7455 5.78854 14.7455 6.10671V7.34671L16.3551 5.73709C16.4379 5.6543 16.5516 5.60873 16.6751 5.60873C16.8191 5.60873 16.9637 5.67084 17.0721 5.77911C17.1732 5.88007 17.2334 6.00998 17.2417 6.14488C17.2501 6.28094 17.2048 6.40565 17.1144 6.49613L15.7997 7.81065L17.2198 9.69199C17.2656 9.75235 17.299 9.82121 17.3181 9.89458C17.3371 9.96795 17.3413 10.0444 17.3306 10.1194C17.3203 10.1945 17.2952 10.2668 17.2568 10.3321C17.2183 10.3974 17.1673 10.4544 17.1067 10.4999C17.0069 10.5757 16.885 10.6166 16.7597 10.6163C16.6703 10.6167 16.5821 10.5962 16.502 10.5564C16.422 10.5166 16.3524 10.4586 16.2988 10.387L14.9458 8.5943L14.7457 8.7945V10.0532C14.7455 10.2063 14.6846 10.353 14.5764 10.4612C14.4682 10.5694 14.3215 10.6303 14.1685 10.6305Z" fill="#E4E5E9"/>
</svg>
