<svg width="64" height="64" viewBox="0 0 64 64" fill="none" xmlns="http://www.w3.org/2000/svg">
<mask id="path-1-inside-1_1793_708" fill="white">
<path d="M38.4004 16.5479L50.1016 4.84668L59.1533 13.8975L47.4512 25.5996H64V38.4004H47.4512L59.1523 50.1016L50.1016 59.1533L38.4004 47.4521V64H25.5996V47.4512L13.8984 59.1523L4.84668 50.1016L16.5479 38.4004H0V25.5996H16.5479L4.84668 13.8984L13.8975 4.84668L25.5996 16.5488V0H38.4004V16.5479Z"/>
</mask>
<path d="M38.4004 16.5479H36.4004V21.3763L39.8146 17.9621L38.4004 16.5479ZM50.1016 4.84668L51.5157 3.43239L50.1015 2.01833L48.6873 3.43247L50.1016 4.84668ZM59.1533 13.8975L60.5675 15.3117L61.9818 13.8974L60.5675 12.4832L59.1533 13.8975ZM47.4512 25.5996L46.037 24.1854L42.6227 27.5996H47.4512V25.5996ZM64 25.5996H66V23.5996H64V25.5996ZM64 38.4004V40.4004H66V38.4004H64ZM47.4512 38.4004V36.4004H42.6227L46.037 39.8146L47.4512 38.4004ZM59.1523 50.1016L60.5666 51.5157L61.9807 50.1015L60.5666 48.6873L59.1523 50.1016ZM50.1016 59.1533L48.6873 60.5675L50.1016 61.9818L51.5159 60.5675L50.1016 59.1533ZM38.4004 47.4521L39.8146 46.0379L36.4004 42.6237V47.4521H38.4004ZM38.4004 64V66H40.4004V64H38.4004ZM25.5996 64H23.5996V66H25.5996V64ZM25.5996 47.4512H27.5996V42.6227L24.1854 46.037L25.5996 47.4512ZM13.8984 59.1523L12.4843 60.5666L13.8985 61.9807L15.3127 60.5666L13.8984 59.1523ZM4.84668 50.1016L3.43247 48.6873L2.01818 50.1016L3.43254 51.5159L4.84668 50.1016ZM16.5479 38.4004L17.9621 39.8146L21.3763 36.4004H16.5479V38.4004ZM0 38.4004H-2V40.4004H0V38.4004ZM0 25.5996V23.5996H-2V25.5996H0ZM16.5479 25.5996V27.5996H21.3763L17.9621 24.1854L16.5479 25.5996ZM4.84668 13.8984L3.43239 12.4843L2.01833 13.8985L3.43247 15.3127L4.84668 13.8984ZM13.8975 4.84668L15.3117 3.43247L13.8974 2.01818L12.4832 3.43254L13.8975 4.84668ZM25.5996 16.5488L24.1854 17.963L27.5996 21.3773V16.5488H25.5996ZM25.5996 0V-2H23.5996V0H25.5996ZM38.4004 0H40.4004V-2H38.4004V0ZM38.4004 16.5479L39.8146 17.9621L51.5158 6.26089L50.1016 4.84668L48.6873 3.43247L36.9862 15.1336L38.4004 16.5479ZM50.1016 4.84668L48.6874 6.26097L57.7392 15.3118L59.1533 13.8975L60.5675 12.4832L51.5157 3.43239L50.1016 4.84668ZM59.1533 13.8975L57.7391 12.4832L46.037 24.1854L47.4512 25.5996L48.8654 27.0138L60.5675 15.3117L59.1533 13.8975ZM47.4512 25.5996V27.5996H64V25.5996V23.5996H47.4512V25.5996ZM64 25.5996H62V38.4004H64H66V25.5996H64ZM64 38.4004V36.4004H47.4512V38.4004V40.4004H64V38.4004ZM47.4512 38.4004L46.037 39.8146L57.7381 51.5158L59.1523 50.1016L60.5666 48.6873L48.8654 36.9862L47.4512 38.4004ZM59.1523 50.1016L57.7381 48.6874L48.6873 57.7392L50.1016 59.1533L51.5159 60.5675L60.5666 51.5157L59.1523 50.1016ZM50.1016 59.1533L51.5158 57.7391L39.8146 46.0379L38.4004 47.4521L36.9862 48.8664L48.6873 60.5675L50.1016 59.1533ZM38.4004 47.4521H36.4004V64H38.4004H40.4004V47.4521H38.4004ZM38.4004 64V62H25.5996V64V66H38.4004V64ZM25.5996 64H27.5996V47.4512H25.5996H23.5996V64H25.5996ZM25.5996 47.4512L24.1854 46.037L12.4842 57.7381L13.8984 59.1523L15.3127 60.5666L27.0138 48.8654L25.5996 47.4512ZM13.8984 59.1523L15.3126 57.7381L6.26082 48.6873L4.84668 50.1016L3.43254 51.5159L12.4843 60.5666L13.8984 59.1523ZM4.84668 50.1016L6.26089 51.5158L17.9621 39.8146L16.5479 38.4004L15.1336 36.9862L3.43247 48.6873L4.84668 50.1016ZM16.5479 38.4004V36.4004H0V38.4004V40.4004H16.5479V38.4004ZM0 38.4004H2V25.5996H0H-2V38.4004H0ZM0 25.5996V27.5996H16.5479V25.5996V23.5996H0V25.5996ZM16.5479 25.5996L17.9621 24.1854L6.26089 12.4842L4.84668 13.8984L3.43247 15.3127L15.1336 27.0138L16.5479 25.5996ZM4.84668 13.8984L6.26097 15.3126L15.3118 6.26082L13.8975 4.84668L12.4832 3.43254L3.43239 12.4843L4.84668 13.8984ZM13.8975 4.84668L12.4832 6.26089L24.1854 17.963L25.5996 16.5488L27.0138 15.1346L15.3117 3.43247L13.8975 4.84668ZM25.5996 16.5488H27.5996V0H25.5996H23.5996V16.5488H25.5996ZM25.5996 0V2H38.4004V0V-2H25.5996V0ZM38.4004 0H36.4004V16.5479H38.4004H40.4004V0H38.4004Z" fill="#E74C2E" mask="url(#path-1-inside-1_1793_708)"/>
</svg>
