<svg width="2395" height="139" viewBox="0 0 2395 139" fill="none" xmlns="http://www.w3.org/2000/svg">
<rect y="20.8169" width="2395" height="9.2779" rx="4.63895" fill="url(#paint0_linear_2090_715)"/>
<rect x="78.7754" width="36" height="36" rx="5" transform="rotate(45 78.7754 0)" fill="#E74C2E"/>
<rect x="686.66" y="11.3135" width="20" height="20" rx="5" transform="rotate(45 686.66 11.3135)" fill="#E74C2E"/>
<rect x="2200.71" y="11.3135" width="20" height="20" rx="5" transform="rotate(45 2200.71 11.3135)" fill="#0B4066"/>
<rect x="1294.54" width="36" height="36" rx="5" transform="rotate(45 1294.54 0)" fill="#0B4066"/>
<rect x="1604.14" y="11.3135" width="20" height="20" rx="5" transform="rotate(45 1604.14 11.3135)" fill="#0B4066"/>
<rect x="1902.42" y="11.3135" width="20" height="20" rx="5" transform="rotate(45 1902.42 11.3135)" fill="#0B4066"/>
<rect width="20" height="20" rx="5" transform="matrix(0.707107 -0.707107 -0.707107 -0.707107 388.375 39.5981)" fill="#E74C2E"/>
<rect width="20" height="20" rx="5" transform="matrix(0.707107 -0.707107 -0.707107 -0.707107 984.944 39.5981)" fill="#E74C2E"/>
<path d="M64.8516 102.801V125.426H60.1328V107.27H60.0078L54.8203 110.52V106.364L60.4141 102.801H64.8516ZM68.7666 121.426V117.708L78.3291 102.801H84.2353V117.645H87.1103V121.426H84.2353V125.426H79.7666V121.426H68.7666ZM73.5166 117.645H79.8291V107.958H79.6103L73.5166 117.458V117.645ZM112.182 99.8638V128.301H108.15V99.8638H112.182ZM103.65 102.833C103.65 111.458 100.619 118.614 90.4628 123.426L88.3691 120.239C95.7128 116.77 98.9472 112.27 99.5878 105.958H89.9003V102.833H103.65ZM147.387 113.708V116.895H136.605V121.833H132.574V116.895H121.355V113.708H147.387ZM144.512 124.583V127.801H124.449V119.301H128.48V124.583H144.512ZM134.355 100.395C140.512 100.426 144.605 102.708 144.637 106.301C144.605 109.926 140.512 112.176 134.355 112.176C128.168 112.176 124.043 109.926 124.043 106.301C124.043 102.708 128.168 100.426 134.355 100.395ZM134.355 103.551C130.668 103.551 128.324 104.489 128.355 106.301C128.324 108.051 130.668 108.989 134.355 108.989C138.012 108.989 140.355 108.051 140.355 106.301C140.355 104.489 138.012 103.551 134.355 103.551ZM156.02 101.395C158.286 101.395 160.27 102.223 161.645 103.614H168.083V99.8638H172.052V116.52H168.083V113.114H161.614C160.239 114.489 158.27 115.317 156.02 115.301C151.708 115.333 148.427 112.364 148.458 108.364C148.427 104.301 151.708 101.395 156.02 101.395ZM156.02 104.801C153.802 104.801 152.208 106.114 152.239 108.364C152.208 110.551 153.802 111.958 156.02 111.926C158.177 111.958 159.739 110.551 159.739 108.364C159.739 106.114 158.177 104.801 156.02 104.801ZM162.333 117.114C168.364 117.114 172.114 119.176 172.145 122.708C172.114 126.239 168.364 128.301 162.333 128.301C156.333 128.301 152.552 126.239 152.552 122.708C152.552 119.176 156.333 117.114 162.333 117.114ZM162.333 120.145C158.552 120.145 156.458 120.989 156.458 122.708C156.458 124.364 158.552 125.208 162.333 125.208C166.177 125.208 168.239 124.364 168.239 122.708C168.239 120.989 166.177 120.145 162.333 120.145ZM163.364 106.77C163.458 107.27 163.52 107.817 163.52 108.364C163.52 108.911 163.458 109.426 163.364 109.926H168.083V106.77H163.364ZM185.873 105.489C185.873 108.895 187.967 112.364 192.654 113.77L190.623 116.895C187.435 115.895 185.185 113.848 183.904 111.27C182.607 114.067 180.295 116.317 176.967 117.426L174.904 114.301C179.623 112.77 181.81 109.083 181.81 105.489V105.083H175.967V101.895H191.592V105.083H185.873V105.489ZM198.592 99.895V120.458H194.592V99.895H198.592ZM199.342 124.614V127.801H179.529V118.583H183.56V124.614H199.342ZM233.922 121.708V124.989H207.89V121.708H218.859V115.895H210.64V101.958H231.015V115.895H222.828V121.708H233.922ZM214.578 105.145V112.77H227.078V105.145H214.578ZM251.399 101.426V104.614H245.712C245.899 107.614 248.04 110.614 252.493 111.833L250.493 114.926C247.243 114.004 244.962 112.051 243.68 109.551C242.383 112.254 240.055 114.395 236.68 115.426L234.68 112.301C239.212 110.989 241.415 107.833 241.618 104.614H235.774V101.426H251.399ZM258.399 99.8638V115.301H254.399V99.8638H258.399ZM243.305 116.489V119.145H254.43V116.489H258.399V127.989H239.368V116.489H243.305ZM243.305 124.801H254.43V122.239H243.305V124.801Z" fill="#E74C2E"/>
<path d="M1280.62 102.801V125.426H1275.9V107.27H1275.77L1270.59 110.52V106.364L1276.18 102.801H1280.62ZM1284.53 121.426V117.708L1294.09 102.801H1300V117.645H1302.88V121.426H1300V125.426H1295.53V121.426H1284.53ZM1289.28 117.645H1295.59V107.958H1295.38L1289.28 117.458V117.645ZM1327.95 99.8638V128.301H1323.92V99.8638H1327.95ZM1319.42 102.833C1319.42 111.458 1316.38 118.614 1306.23 123.426L1304.13 120.239C1311.48 116.77 1314.71 112.27 1315.35 105.958H1305.67V102.833H1319.42ZM1344.81 101.864C1349.15 101.864 1352.28 105.801 1352.31 111.989C1352.28 118.239 1349.15 122.145 1344.81 122.145C1340.46 122.145 1337.28 118.239 1337.31 111.989C1337.28 105.801 1340.46 101.864 1344.81 101.864ZM1344.81 105.458C1342.62 105.458 1341.15 107.77 1341.15 111.989C1341.15 116.239 1342.62 118.52 1344.81 118.52C1347.03 118.52 1348.46 116.239 1348.5 111.989C1348.46 107.77 1347.03 105.458 1344.81 105.458ZM1359.59 99.8638V110.583H1363.78V113.895H1359.59V128.301H1355.59V99.8638H1359.59ZM1387.75 99.8638V128.301H1383.72V99.8638H1387.75ZM1379.22 102.833C1379.22 111.458 1376.19 118.614 1366.04 123.426L1363.94 120.239C1371.29 116.77 1374.52 112.27 1375.16 105.958H1365.47V102.833H1379.22ZM1401.01 106.301C1400.98 111.395 1403.17 116.551 1407.73 118.739L1405.33 121.926C1402.28 120.426 1400.23 117.614 1399.04 114.176C1397.81 117.864 1395.61 120.879 1392.39 122.458L1389.92 119.239C1394.73 117.02 1397.01 111.583 1397.01 106.301V102.051H1401.01V106.301ZM1412.98 99.8638V110.833H1417.17V114.208H1412.98V128.301H1408.98V99.8638H1412.98ZM1427.74 107.614C1427.71 111.958 1430.02 116.958 1434.71 119.114L1432.49 122.239C1429.32 120.786 1427.05 117.879 1425.8 114.458C1424.52 118.223 1422.19 121.411 1418.9 122.958L1416.58 119.801C1421.33 117.583 1423.71 112.301 1423.74 107.614V105.864H1417.71V102.614H1433.46V105.864H1427.74V107.614ZM1439.68 99.8638V110.708H1443.87V114.051H1439.68V128.301H1435.68V99.8638H1439.68ZM1476.38 121.708V124.989H1450.35V121.708H1461.32V115.895H1453.1V101.958H1473.48V115.895H1465.29V121.708H1476.38ZM1457.04 105.145V112.77H1469.54V105.145H1457.04ZM1493.86 101.426V104.614H1488.17C1488.36 107.614 1490.5 110.614 1494.95 111.833L1492.95 114.926C1489.7 114.004 1487.42 112.051 1486.14 109.551C1484.85 112.254 1482.52 114.395 1479.14 115.426L1477.14 112.301C1481.67 110.989 1483.88 107.833 1484.08 104.614H1478.24V101.426H1493.86ZM1500.86 99.8638V115.301H1496.86V99.8638H1500.86ZM1485.77 116.489V119.145H1496.89V116.489H1500.86V127.989H1481.83V116.489H1485.77ZM1485.77 124.801H1496.89V122.239H1485.77V124.801Z" fill="#0B4066"/>
<defs>
<linearGradient id="paint0_linear_2090_715" x1="8.66746" y1="25.4558" x2="2395" y2="25.4558" gradientUnits="userSpaceOnUse">
<stop stop-color="#E74C2E" stop-opacity="0"/>
<stop offset="0.022134" stop-color="#E74C2E"/>
<stop offset="0.389428" stop-color="#E74C2E"/>
<stop offset="0.629819" stop-color="#0B4066"/>
<stop offset="0.98" stop-color="#0B4066"/>
<stop offset="1" stop-color="#0B4066" stop-opacity="0"/>
</linearGradient>
</defs>
</svg>
