<svg width="48" height="49" viewBox="0 0 48 49" fill="none" xmlns="http://www.w3.org/2000/svg">
<g clip-path="url(#clip0_1401_408)">
<path d="M32.259 23.2083C31.7996 22.8146 31.2277 22.6177 30.5527 22.6177C29.8215 22.6177 29.2496 22.8239 28.8371 23.2458C28.434 23.6677 28.1809 24.2302 28.0684 24.9427H33.009C32.9715 24.1833 32.709 23.6114 32.259 23.2083Z" fill="#0B4066"/>
<path d="M20.0906 25.2336C19.7344 25.0742 19.2469 24.9898 18.6094 24.9805H14.9531V28.9367H18.5625C19.2094 28.9367 19.7063 28.8523 20.0625 28.6742C20.7188 28.3461 21.0375 27.7367 21.0375 26.8273C21.0375 26.0586 20.7188 25.5242 20.0906 25.2336Z" fill="#0B4066"/>
<path d="M24 0.286621C10.7438 0.286621 0 11.0304 0 24.2866C0 37.5429 10.7438 48.2866 24 48.2866C37.2562 48.2866 48 37.5429 48 24.2866C48 11.0304 37.2562 0.286621 24 0.286621ZM27.3375 17.3772H33.6937V19.2241H27.3375V17.3772ZM23.5031 29.4054C23.2219 29.8647 22.875 30.2585 22.4531 30.5679C21.9844 30.9335 21.4219 31.1772 20.775 31.3179C20.1281 31.4491 19.4344 31.5147 18.675 31.5147H12V16.6835H19.1719C20.9813 16.7116 22.2656 17.2366 23.0156 18.2679C23.4656 18.896 23.6906 19.6554 23.6906 20.5366C23.6906 21.4366 23.4656 22.1679 23.0062 22.721C22.7531 23.0304 22.3687 23.3116 21.8719 23.5647C22.6313 23.846 23.2031 24.2772 23.5875 24.8772C23.9719 25.4772 24.1687 26.1991 24.1687 27.0522C24.1687 27.9147 23.9438 28.7022 23.5031 29.4054ZM36 26.8366H28.0125C28.0594 27.9335 28.4344 28.7116 29.1562 29.1522C29.5969 29.4241 30.1219 29.5647 30.7406 29.5647C31.3875 29.5647 31.9219 29.396 32.3344 29.0585C32.5594 28.8804 32.7563 28.6272 32.925 28.2991H35.85C35.775 28.946 35.4188 29.6116 34.7906 30.2866C33.8063 31.3554 32.4375 31.8897 30.6656 31.8897C29.2031 31.8897 27.9187 31.4397 26.8031 30.5397C25.6875 29.6397 25.125 28.1772 25.125 26.1522C25.125 24.2491 25.6313 22.796 26.6344 21.7835C27.6469 20.771 28.95 20.2647 30.5531 20.2647C31.5094 20.2647 32.3719 20.4335 33.1312 20.7804C33.9 21.1179 34.5281 21.6616 35.025 22.4022C35.475 23.0491 35.7656 23.8085 35.8969 24.671C35.9813 25.1679 36.0094 25.8897 36 26.8366Z" fill="#0B4066"/>
<path d="M20.1379 22.1587C20.541 21.9149 20.7379 21.4743 20.7379 20.8556C20.7379 20.1618 20.4754 19.7118 19.941 19.4868C19.4816 19.3368 18.9004 19.2524 18.1879 19.2524H14.9629V22.5243H18.5629C19.2098 22.5337 19.7254 22.4118 20.1379 22.1587Z" fill="#0B4066"/>
</g>
<defs>
<clipPath id="clip0_1401_408">
<rect width="48" height="48" fill="white" transform="translate(0 0.286621)"/>
</clipPath>
</defs>
</svg>
