<svg width="48" height="49" viewBox="0 0 48 49" fill="none" xmlns="http://www.w3.org/2000/svg">
<g clip-path="url(#clip0_1401_414)">
<path fill-rule="evenodd" clip-rule="evenodd" d="M24 0.286621C37.2552 0.286621 48 11.3025 48 24.8937C48 35.7633 41.1312 44.9841 31.6008 48.2409C30.384 48.4833 29.952 47.7149 29.952 47.0597C29.952 46.2485 29.9808 43.599 29.9808 40.3062C29.9808 38.0118 29.2128 36.5143 28.3512 35.7511C33.696 35.1415 39.312 33.0605 39.312 23.6093C39.312 20.9213 38.3808 18.7278 36.84 17.0046C37.0896 16.383 37.9128 13.8801 36.6048 10.4913C36.6048 10.4913 34.5936 9.83196 30.012 13.0144C28.0944 12.4696 26.04 12.1954 24 12.1858C21.96 12.1954 19.908 12.4696 17.9928 13.0144C13.4064 9.83196 11.3904 10.4913 11.3904 10.4913C10.0872 13.8801 10.9104 16.383 11.1576 17.0046C9.62401 18.7278 8.68561 20.9213 8.68561 23.6093C8.68561 33.0365 14.2896 35.1494 19.62 35.771C18.9336 36.3854 18.312 37.4692 18.096 39.0605C16.728 39.6893 13.2528 40.7775 11.112 37.0167C11.112 37.0167 9.8424 34.6524 7.4328 34.4796C7.4328 34.4796 5.0928 34.4485 7.2696 35.9749C7.2696 35.9749 8.8416 36.7309 9.9336 39.5749C9.9336 39.5749 11.3424 43.9668 18.0192 42.4788C18.0312 44.5356 18.0528 46.4741 18.0528 47.0597C18.0528 47.7101 17.6112 48.4713 16.4136 48.2433C6.87599 44.9913 0 35.7657 0 24.8937C0 11.3025 10.7472 0.286621 24 0.286621Z" fill="#0B4066"/>
</g>
<defs>
<clipPath id="clip0_1401_414">
<rect width="48" height="48" fill="white" transform="translate(0 0.286621)"/>
</clipPath>
</defs>
</svg>
