<svg width="48" height="49" viewBox="0 0 48 49" fill="none" xmlns="http://www.w3.org/2000/svg">
<path d="M16 6.28662C10.478 6.28662 6 10.7646 6 16.2866V32.2866C6 37.8086 10.478 42.2866 16 42.2866H32C37.522 42.2866 42 37.8086 42 32.2866V16.2866C42 10.7646 37.522 6.28662 32 6.28662H16ZM36 10.2866C37.104 10.2866 38 11.1826 38 12.2866C38 13.3906 37.104 14.2866 36 14.2866C34.896 14.2866 34 13.3906 34 12.2866C34 11.1826 34.896 10.2866 36 10.2866ZM24 14.2866C29.522 14.2866 34 18.7646 34 24.2866C34 29.8086 29.522 34.2866 24 34.2866C18.478 34.2866 14 29.8086 14 24.2866C14 18.7646 18.478 14.2866 24 14.2866ZM24 18.2866C22.4087 18.2866 20.8826 18.9188 19.7574 20.044C18.6321 21.1692 18 22.6953 18 24.2866C18 25.8779 18.6321 27.404 19.7574 28.5293C20.8826 29.6545 22.4087 30.2866 24 30.2866C25.5913 30.2866 27.1174 29.6545 28.2426 28.5293C29.3679 27.404 30 25.8779 30 24.2866C30 22.6953 29.3679 21.1692 28.2426 20.044C27.1174 18.9188 25.5913 18.2866 24 18.2866Z" fill="#0B4066"/>
</svg>
