<svg width="48" height="49" viewBox="0 0 48 49" fill="none" xmlns="http://www.w3.org/2000/svg">
<g clip-path="url(#clip0_1398_521)">
<path d="M7.8 24.2866C7.8 20.8666 10.58 18.0866 14 18.0866H22V14.2866H14C8.48 14.2866 4 18.7666 4 24.2866C4 29.8066 8.48 34.2866 14 34.2866H22V30.4866H14C10.58 30.4866 7.8 27.7066 7.8 24.2866ZM16 26.2866H32V22.2866H16V26.2866ZM34 14.2866H26V18.0866H34C37.42 18.0866 40.2 20.8666 40.2 24.2866C40.2 27.7066 37.42 30.4866 34 30.4866H26V34.2866H34C39.52 34.2866 44 29.8066 44 24.2866C44 18.7666 39.52 14.2866 34 14.2866Z" fill="#08395B"/>
</g>
<defs>
<clipPath id="clip0_1398_521">
<rect width="48" height="48" fill="white" transform="translate(0 0.286621)"/>
</clipPath>
</defs>
</svg>
