<svg width="48" height="49" viewBox="0 0 48 49" fill="none" xmlns="http://www.w3.org/2000/svg">
<path d="M20 34.2866H18V19.2866L28.4364 34.9412C29.374 36.3476 31.0948 37.013 32.7348 36.603L33.2426 36.476C33.6878 36.3646 34 35.9646 34 35.5058V14.2866C34 14.2866 36 14.2866 36 12.2866H30C28 12.2866 28 14.2866 28 14.2866H30V26.2866L20.2992 12.7054C20.1114 12.4426 19.8085 12.2866 19.4855 12.2866H14C12 12.2866 12 14.2866 12 14.2866H14V34.2866C14 34.2866 12 34.2866 12 36.2866H18C20 36.2866 20 34.2866 20 34.2866Z" fill="#0B4066"/>
<path fill-rule="evenodd" clip-rule="evenodd" d="M2 8.28662C2 4.97292 4.6863 2.28662 8 2.28662H40C43.3138 2.28662 46 4.97292 46 8.28662V40.2866C46 43.6004 43.3138 46.2866 40 46.2866H8C4.6863 46.2866 2 43.6004 2 40.2866V8.28662ZM8 6.28662H40C41.1046 6.28662 42 7.18206 42 8.28662V40.2866C42 41.3912 41.1046 42.2866 40 42.2866H8C6.89544 42.2866 6 41.3912 6 40.2866V8.28662C6 7.18206 6.89544 6.28662 8 6.28662Z" fill="#0B4066"/>
</svg>
