<svg width="48" height="49" viewBox="0 0 48 49" fill="none" xmlns="http://www.w3.org/2000/svg">
<path d="M24.0007 0.286621C37.2555 0.286728 48.0007 11.0319 48.0007 24.2866C48.0007 37.5414 37.2555 48.2865 24.0007 48.2866C10.7459 48.2866 3.53192e-05 37.5414 0 24.2866C0 11.0318 10.7459 0.286621 24.0007 0.286621ZM24.0146 32.812C21.7446 32.812 19.8896 34.6523 19.8896 36.9224C19.8898 39.1923 21.7447 41.0327 24.0146 41.0327C26.2845 41.0326 28.1395 39.1922 28.1396 36.9224C28.1396 34.6524 26.2846 32.8121 24.0146 32.812ZM24.0146 22.4666C21.7447 22.4666 19.8898 24.3063 19.8896 26.5762C19.8896 28.8462 21.7446 30.6865 24.0146 30.6865C26.2846 30.6864 28.1396 28.8462 28.1396 26.5762C28.1395 24.3063 26.2845 22.4666 24.0146 22.4666ZM13.6538 12.0911C11.3839 12.0913 9.54353 13.9461 9.54346 16.2161C9.54346 18.4861 11.3839 20.3409 13.6538 20.3411C15.9239 20.3411 17.7649 18.4862 17.7649 16.2161C17.7648 13.946 15.9239 12.0911 13.6538 12.0911ZM24 12.0911C21.7299 12.0911 19.8897 13.946 19.8896 16.2161C19.8896 18.4862 21.7299 20.3411 24 20.3411C26.2701 20.341 28.1104 18.4861 28.1104 16.2161C28.1103 13.9461 26.27 12.0911 24 12.0911ZM34.3455 12.0911C32.0754 12.0911 30.2352 13.9461 30.2351 16.2161C30.2351 18.4861 32.0754 20.341 34.3455 20.3411C36.6156 20.3411 38.4558 18.4862 38.4558 16.2161C38.4557 13.946 36.6155 12.0911 34.3455 12.0911Z" fill="#0B4066"/>
</svg>
