<svg width="48" height="49" viewBox="0 0 48 49" fill="none" xmlns="http://www.w3.org/2000/svg">
<path d="M43.164 12.6586C42.704 10.9386 41.348 9.58262 39.628 9.12262C36.508 8.28662 24 8.28662 24 8.28662C24 8.28662 11.492 8.28662 8.372 9.12262C6.652 9.58262 5.296 10.9386 4.836 12.6586C4 15.7786 4 24.2866 4 24.2866C4 24.2866 4 32.7946 4.836 35.9146C5.296 37.6346 6.652 38.9906 8.372 39.4506C11.492 40.2866 24 40.2866 24 40.2866C24 40.2866 36.508 40.2866 39.628 39.4506C41.35 38.9906 42.704 37.6346 43.164 35.9146C44 32.7946 44 24.2866 44 24.2866C44 24.2866 44 15.7786 43.164 12.6586ZM20 31.2146V17.3586L32 24.2866L20 31.2146Z" fill="#0B4066"/>
</svg>
