<svg width="176" height="188" viewBox="0 0 176 188" fill="none" xmlns="http://www.w3.org/2000/svg">
<path d="M52.9128 5.32344C69.6969 -0.466812 88.2915 7.95022 94.9472 24.4567L95.2593 25.2617L96.5554 28.7291C96.7877 28.7229 97.0215 28.718 97.2552 28.7165L98.151 28.7228L98.1663 28.7237H98.1816C101.615 28.7998 104.873 29.4098 107.896 30.4255C111.525 29.1293 115.486 28.4279 119.68 28.5169H119.685L120.32 28.5366C132.805 29.0404 142.941 36.4184 148.228 46.0707L149.305 47.6348L150.061 49.6559C150.071 49.685 150.08 49.71 150.089 49.7342C150.098 49.7585 150.108 49.7834 150.119 49.8124L150.177 49.968C150.197 50.0216 150.218 50.0765 150.236 50.1254L150.353 50.4375C150.391 50.5398 150.429 50.6426 150.469 50.7497L168.985 100.284L169.229 100.949C179.279 128.917 165.077 159.912 137.394 170.663L136.732 170.915L110.272 180.806C87.7458 189.226 62.2616 182.019 47.5494 162.933L37.3675 149.846L37.1714 149.321C34.4459 145.287 30.8963 138.84 29.3596 130.523C27.614 121.143 29.0581 112.786 31.9582 106.038L10.8821 78.6859L10.8371 78.6265C-0.339348 63.9924 2.42773 42.8062 17.1495 31.5885L17.8385 31.0767C22.3081 27.8476 27.3556 25.8752 32.5239 25.1088C35.8505 16.4061 42.7475 9.11173 52.1024 5.61487L52.9128 5.32344Z" fill="#E2CC9D" stroke="#08395B" stroke-width="6"/>
<path d="M58.3975 21.6016C50.158 24.6815 45.9003 33.9977 48.9741 42.2208L51.8361 49.8775L50.4505 48.0803C45.1205 41.1012 34.9204 39.7716 27.9239 45.1028C20.9274 50.4339 19.5825 60.6204 24.9125 67.5995L53.6783 104.932C52.8776 105.654 52.0206 106.464 51.2292 107.45C47.9755 111.516 45.1302 118.345 46.7365 126.939C47.9138 133.31 51.0325 138.133 52.9327 140.651C52.9546 140.709 52.9692 140.748 52.9911 140.807L61.5781 151.844C71.5823 164.823 88.9493 169.752 104.313 164.009L130.773 154.118C150.09 146.897 159.967 125.285 152.761 106.006L134.245 56.4724C134.165 56.2575 134.092 56.0622 134.012 55.8473C133.975 55.7497 133.931 55.6325 133.895 55.5348C133.873 55.4762 133.858 55.4372 133.837 55.3786C133.739 55.2369 133.622 55.1026 133.505 54.9683C130.996 49.6284 125.729 45.7424 119.478 45.6081C115.138 45.516 111.245 47.216 108.263 49.9782C105.492 47.5188 101.899 45.9013 97.9626 45.8143C93.4447 45.7222 89.3513 47.5417 86.3367 50.5163L79.0355 30.9839C75.9617 22.7608 66.637 18.5216 58.3975 21.6016ZM62.1357 31.6021C64.9735 30.5413 67.9563 31.8974 69.015 34.7296L81.3394 67.7001L81.0789 82.7572C81.0288 84.8908 81.4286 87.0343 82.1441 88.9485L62.6264 99.2717L33.5101 61.0019C31.6806 58.6137 32.0675 55.3525 34.4617 53.5226C36.8559 51.6926 40.18 52.231 42.0095 54.6192L65.1347 84.9772L70.1288 81.1514L74.3562 79.5712L58.9945 38.4752C57.9359 35.643 59.2978 32.6629 62.1357 31.6021ZM95.4988 56.8865C96.1374 56.6256 96.9103 56.4257 97.651 56.4382C100.668 56.5126 103.001 58.9352 102.922 61.9476L102.564 77.2195L102.622 77.3757L102.514 83.2931C102.519 83.6031 102.328 83.8081 102.278 84.0937C98.9967 83.072 95.3124 83.0021 91.9707 84.2067C91.8907 83.8137 91.7005 83.4841 91.7184 83.0544L92.283 61.6504C92.3285 59.385 93.5759 57.6498 95.4988 56.8865ZM117.014 56.6803C117.679 56.4316 118.406 56.2268 119.166 56.232C121.435 56.2744 123.215 57.6348 123.991 59.593C124.013 59.6516 124.028 59.6906 124.05 59.7492C124.276 60.3547 124.446 61.0481 124.437 61.7414L123.999 77.7553C123.921 80.7677 121.492 83.1005 118.475 83.0261C115.458 82.9516 113.281 80.4705 113.36 77.4581L113.719 62.1863C113.724 61.9617 113.636 61.7273 113.641 61.5027C113.681 59.9965 114.267 58.6419 115.252 57.6951C115.744 57.2217 116.348 56.929 117.014 56.6803ZM94.2413 94.5778C96.6498 92.9651 99.7659 93.6035 101.378 96.0063C102.375 97.4811 102.467 98.382 102.291 99.4048C102.116 100.428 101.466 101.85 99.5266 103.466L77.5946 118.788C76.2532 119.734 75.434 121.243 75.3457 122.856C75.2647 124.489 75.9221 126.069 77.15 127.146L84.7862 133.73C87.0224 135.655 90.4041 135.393 92.3271 133.138C94.2575 130.902 93.9992 127.526 91.7434 125.609L89.3998 123.636L106.064 111.886C106.206 111.788 106.341 111.671 106.476 111.554C109.847 108.757 112.097 105.289 112.83 101.342C113.43 98.113 112.89 94.8196 111.438 91.8896C113.497 92.923 115.865 93.5294 118.32 93.5914C124.908 93.7332 130.67 89.9321 133.22 84.2818L142.741 109.752C147.924 123.62 140.931 138.923 127.035 144.117L100.575 154.008C89.556 158.127 77.196 154.599 70.0191 145.305L61.5887 134.209C60.6739 133.015 58.0851 128.596 57.3995 124.912C56.3311 119.189 57.9057 116.241 59.6085 114.113C61.3113 111.985 62.8405 111.302 62.8405 111.302C62.9384 111.265 63.0558 111.221 63.1536 111.185L93.83 94.9096C93.972 94.812 94.1067 94.6949 94.2413 94.5778Z" fill="#08395B"/>
</svg>
